<svg width="121" height="50" viewBox="0 0 121 50" fill="none" xmlns="http://www.w3.org/2000/svg">
<path d="M116.995 39.3104C116.971 39.2365 116.922 39.1872 116.872 39.1872C116.823 39.1872 116.749 39.2118 116.7 39.2857L116.109 40.0739C115.197 41.2808 114.335 42.2907 113.523 43.0788C112.734 43.867 111.7 44.5567 110.419 45.1232C109.138 45.6897 107.611 45.9852 105.838 45.9852C105.173 45.9852 104.532 45.7143 103.892 45.1478C103.252 44.5813 102.956 43.5961 102.956 42.1921C102.956 41.8966 102.956 41.6503 102.981 41.4778C105.838 40.5419 108.005 39.7537 109.532 39.1133C111.059 38.4729 112.168 37.8079 112.907 37.1182C113.621 36.4286 113.991 35.665 113.991 34.803C113.991 34.2365 113.769 33.67 113.301 33.1035C112.833 32.537 112.193 32.069 111.38 31.7241C110.567 31.3547 109.631 31.1823 108.572 31.1823C106.823 31.1823 105.025 31.798 103.202 33.0296C101.355 34.2611 99.8526 35.8374 98.6703 37.734C97.4881 39.6306 96.8969 41.5271 96.8969 43.399C96.8969 44.5813 97.1679 45.5665 97.6851 46.3793C96.9955 46.9705 96.3058 47.3399 95.6408 47.4877C95.493 47.4877 95.3452 47.3892 95.2467 47.1675C95.1482 46.9705 95.0743 46.6749 95.0743 46.3301C95.0743 46.0099 95.1482 45.5911 95.3206 45.0739C95.3698 44.803 95.7393 43.67 96.3797 41.6749C97.0201 39.6798 97.5373 38.1035 97.9314 37.0197C98.1531 36.4778 98.2516 35.8867 98.2516 35.2217C98.2516 34.1379 97.956 33.202 97.3649 32.3892C96.7738 31.5764 96.0349 31.1576 95.1974 31.1576C94.9019 31.1576 94.5817 31.2315 94.2615 31.3547C91.5767 32.4138 88.9413 35.5419 86.4043 40.7143H86.2319L87.6851 36.5517C87.8575 35.9852 87.9561 35.468 87.9561 35.0246C87.9561 34.2857 87.759 33.6207 87.3895 33.0296C87.0201 32.4384 86.5521 31.9951 86.0102 31.6749C85.4684 31.3547 84.9511 31.1823 84.4585 31.1823C84.1876 31.1823 83.9659 31.2315 83.7935 31.3054C83.0299 31.6749 82.291 32.2168 81.626 32.9064C81.3551 33.1773 81.0595 33.4975 80.7639 33.8424C80.6408 33.5714 80.493 33.3005 80.2713 33.0542C79.8033 32.4877 79.1629 32.0197 78.3501 31.6749C77.5373 31.3054 76.6014 31.133 75.5423 31.133C73.7935 31.133 71.9955 31.7488 70.1728 32.9803C68.3255 34.2118 66.823 35.7882 65.6408 37.6847C64.4585 39.5813 63.8674 41.4778 63.8674 43.3498C63.8674 43.867 63.9166 44.3596 64.0398 44.803C62.1679 45.5665 60.4437 45.9606 58.8674 45.9606C57.9068 45.9606 57.1925 45.5911 56.6999 44.8522C56.2073 44.1133 55.9856 43.202 55.9856 42.1182C55.9856 40.8621 56.158 39.4089 56.4782 37.7833C56.823 36.1576 57.2418 34.7783 57.8083 33.6207C58.3501 32.4631 58.9166 31.8966 59.5078 31.8966C60.0989 31.8966 60.5669 32.3645 60.9117 33.3251C61.2565 34.2857 61.429 35.6897 61.429 37.5862C61.429 37.7833 61.5028 37.931 61.6753 38.0542C61.823 38.1774 62.0201 38.2266 62.2664 38.2266C62.9314 38.2266 63.6457 38.0542 64.4093 37.6847C65.1728 37.3153 65.7886 36.8473 66.2812 36.2808C66.7738 35.6897 67.0201 35.0985 67.0201 34.4828C67.0201 33.4237 66.5028 32.5862 65.493 31.9705C64.4831 31.3547 63.1038 31.0591 61.4043 31.0591C59.9511 31.0591 58.3255 31.6503 56.4782 32.8079C54.6556 33.9902 53.1038 35.5173 51.8477 37.3892C51.8477 37.4138 51.823 37.4138 51.823 37.4384C51.6506 37.1675 51.4782 36.9212 51.2565 36.6749C50.3945 35.6897 49.0644 34.7537 47.2418 33.867C45.5423 33.0542 44.36 32.4877 43.7196 32.1182C43.0792 31.7488 42.5866 31.3547 42.2664 30.936C41.9462 30.5172 41.7738 29.9507 41.7738 29.2611C41.7738 28.6207 41.9708 27.9803 42.3403 27.3892C42.7344 26.798 43.2516 26.3054 43.9166 25.9606C44.5817 25.5911 45.3206 25.4187 46.0841 25.4187C47.094 25.4187 48.0299 25.7882 48.9166 26.5517C49.8033 27.3153 50.5669 28.3744 51.2073 29.7783C51.823 31.1576 52.2664 32.7586 52.4634 34.5567C52.4634 34.6552 52.4881 34.6798 52.562 34.6798C52.6112 34.6798 52.6605 34.6306 52.7097 34.5567L54.2615 23.7192C54.2615 23.6453 54.2368 23.6207 54.1629 23.5961C54.1137 23.5961 54.0644 23.6207 54.0152 23.7192C53.9659 23.8177 53.8428 24.0148 53.695 24.2611C53.5472 24.5074 53.3501 24.7783 53.1038 25C52.8575 25.2463 52.5127 25.3695 52.0694 25.3695C51.7245 25.3695 51.0595 25.2956 50.1235 25.1724C48.8674 25 47.759 24.9015 46.823 24.9015C44.7541 24.9015 42.9068 25.2956 41.3551 26.0591C39.7787 26.8227 38.5718 27.8818 37.7344 29.2118C36.8969 30.5419 36.4782 32.0443 36.4782 33.7192C36.4782 34.5567 36.626 35.2709 36.9462 35.8621C37.2418 36.4532 37.7097 36.9705 38.3501 37.4384C38.9659 37.9064 39.8772 38.4483 41.0595 39.0394C42.562 39.8276 43.7442 40.468 44.557 40.9852C45.3698 41.5025 46.0102 42.0197 46.4782 42.537C46.9216 43.0542 47.1432 43.6207 47.1432 44.1872C47.1432 44.9015 46.9216 45.5665 46.5028 46.1823C46.0595 46.798 45.4684 47.266 44.7048 47.6355C43.9413 48.0049 43.1038 48.1773 42.1679 48.1773C40.2467 48.1773 38.6457 47.4138 37.3895 45.9113C36.1334 44.3842 35.4437 41.9705 35.3206 38.67C35.296 38.5961 35.2713 38.5714 35.2221 38.5468C35.1728 38.5468 35.1482 38.5714 35.1235 38.67L33.5226 49.8769C33.4979 49.9754 33.5226 50 33.6211 50C33.695 50 33.7689 49.9508 33.7935 49.8769C34.1383 49.2857 34.4339 48.867 34.7295 48.6207C35.025 48.3498 35.3698 48.2266 35.7639 48.2266C36.2319 48.2266 36.9462 48.3005 37.8822 48.4237C39.1383 48.5961 40.3698 48.6946 41.6014 48.6946C43.2024 48.6946 44.828 48.3251 46.5521 47.5862C47.9807 46.9705 49.1876 46.1576 50.2221 45.1232C50.5176 46.0591 51.0595 46.798 51.8477 47.3892C53.1038 48.3005 54.6556 48.7685 56.4782 48.7685C57.759 48.7685 59.2122 48.4237 60.8378 47.7586C62.0201 47.266 63.2024 46.601 64.3846 45.7389C64.6556 46.3547 65.0743 46.8719 65.5915 47.3153C66.7245 48.2759 68.2024 48.7439 70.0496 48.7439C72.3157 48.7439 74.4093 48.1774 76.3304 47.0197C77.2664 46.4532 78.1285 45.8867 78.892 45.2709C78.5718 46.1823 78.2762 47.0443 77.9807 47.8325C77.9068 48.0296 77.8575 48.202 77.8575 48.3498C77.8575 48.4483 77.8822 48.5222 77.9561 48.5714C78.0299 48.5961 78.1531 48.6207 78.3255 48.6453C78.5472 48.67 78.8674 48.67 79.2861 48.67C81.1088 48.67 82.7097 48.399 84.0891 47.8325C84.3846 47.734 84.5817 47.5123 84.6556 47.2168C84.9019 46.3301 85.1974 45.3695 85.5423 44.335C85.8871 43.3005 86.2073 42.4631 86.4782 41.8719C87.4634 39.803 88.3748 38.2512 89.2615 37.2168C90.1235 36.1576 90.8871 35.6404 91.4782 35.6404C91.7245 35.8374 91.8723 36.0591 91.8723 36.3301C91.8723 36.4532 91.823 36.6503 91.7492 36.8719C91.6753 37.0936 91.626 37.266 91.6014 37.3399L91.2073 38.5468C90.9856 39.335 90.7639 40.0739 90.5423 40.8128C90.1728 41.9951 89.9019 42.9064 89.7294 43.5468C89.5817 43.9902 89.5324 44.4581 89.5324 44.9015C89.5324 46.1084 90.0004 47.069 90.9363 47.7586C91.8723 48.4483 92.9807 48.7931 94.2861 48.7931C95.3698 48.7931 96.5028 48.2759 97.6605 47.2414C97.8329 47.0936 97.9807 46.9458 98.1285 46.798C98.3009 46.9951 98.4733 47.1675 98.6703 47.3399C99.8033 48.3005 101.281 48.7685 103.128 48.7685C105.394 48.7685 107.488 48.202 109.409 47.0443C111.33 45.8867 112.931 44.6306 114.188 43.2266C115.444 41.8227 116.404 40.5911 117.045 39.5074C116.995 39.4581 117.02 39.3842 116.995 39.3104ZM70.5423 37.1429C70.8625 35.7143 71.2812 34.4828 71.7738 33.4729C72.2664 32.4631 72.8083 31.9705 73.3994 31.9705C73.9905 31.9705 74.4831 32.2906 74.9265 32.9064C75.3452 33.5222 75.5669 34.2118 75.5669 35C75.5669 36.0838 75.4684 36.8966 75.296 37.4384C75.0989 37.9803 74.6309 38.5222 73.8427 39.0887C73.0792 39.6552 71.7738 40.3202 69.9511 41.0838C70.0004 39.9015 70.2221 38.5714 70.5423 37.1429ZM77.3157 45.1232C76.0349 45.6897 74.5078 45.9852 72.7344 45.9852C72.0693 45.9852 71.429 45.7143 70.7886 45.1478C70.1482 44.5813 69.8526 43.5961 69.8526 42.1921C69.8526 41.8966 69.8526 41.6503 69.8772 41.4778C72.7344 40.5419 74.9019 39.7537 76.429 39.1133C77.956 38.4729 79.0644 37.8079 79.8033 37.1182C80.4684 36.4778 80.8378 35.7882 80.8871 35C81.2565 34.7783 81.5275 34.6798 81.7245 34.6798C81.9216 34.6552 82.0201 34.8276 82.0201 35.1724C82.0201 35.3448 81.9955 35.5173 81.9216 35.6897L81.2073 37.931C80.5176 40.1971 79.8526 42.2414 79.2122 44.1133C78.6457 44.4581 78.0299 44.803 77.3157 45.1232ZM104.853 33.4976C105.345 32.4877 105.887 31.9951 106.478 31.9951C107.069 31.9951 107.562 32.3153 108.005 32.931C108.424 33.5468 108.646 34.2365 108.646 35.0246C108.646 36.1084 108.547 36.9212 108.375 37.4631C108.178 38.0049 107.71 38.5468 106.922 39.1133C106.158 39.6798 104.853 40.3448 103.03 41.1084C103.128 39.9261 103.35 38.5961 103.67 37.1675C103.941 35.7143 104.36 34.5074 104.853 33.4976Z" fill="#1E1716"/>
<path d="M3.17734 22.3891C2.46305 22.4384 1.67488 22.4384 0.837437 22.4384C0.738915 22.4384 0.665024 22.3891 0.665024 22.3152C0.665024 22.266 0.689655 22.2413 0.738916 22.1921C0.788177 22.1428 0.837438 22.1428 0.911329 22.1428C1.67488 22.1182 2.3399 21.9458 2.88177 21.6256C3.42364 21.3054 3.94089 20.7143 4.40887 19.9015C4.90148 19.064 5.41872 17.8571 5.98522 16.2808L10.6158 2.75859H10.1232C9.7537 2.75859 8.96552 3.17731 7.75862 3.99012C6.55172 4.82756 5.24631 5.9113 3.84237 7.26598C2.43843 8.62066 1.23153 10.0492 0.197045 11.5763C0.147784 11.6502 0.0985214 11.6995 0.0492603 11.6995C-7.52399e-07 11.6995 0 11.6502 0 11.5763L5.34483 0.837411C5.36946 0.78815 5.41872 0.788147 5.44335 0.788147C5.46798 0.788147 5.51724 0.812781 5.51724 0.837411C5.54187 1.37928 5.96059 1.77337 6.7734 1.99504C7.56158 2.21672 8.7931 2.31524 10.4187 2.31524H17.1182C18.4729 2.31524 19.532 2.26598 20.2956 2.16746C21.0591 2.06894 21.6502 1.89652 22.0443 1.69948C22.4384 1.47781 22.7833 1.20687 23.0542 0.837411C23.0788 0.78815 23.1281 0.788147 23.1773 0.788147C23.2266 0.788147 23.2512 0.812781 23.2512 0.837411L21.2315 11.5763C21.2069 11.6749 21.1576 11.7241 21.1084 11.6995C21.0591 11.6995 21.0345 11.6256 21.0345 11.5024C21.0345 9.97534 20.7882 8.54677 20.3202 7.19209C19.8522 5.83741 19.2857 4.7783 18.6453 3.94086C18.0049 3.12805 17.4631 2.70933 17.0443 2.70933H16.6995L12.0443 16.2561C11.6502 17.4384 11.4532 18.399 11.4532 19.1625C11.4532 20.2216 11.7488 20.9606 12.3153 21.3793C12.8818 21.8226 13.6207 22.0443 14.5074 22.0689C14.6305 22.0689 14.7044 22.1182 14.7537 22.2167C14.7783 22.3152 14.7537 22.3645 14.6305 22.3645C13.8424 22.3645 13.1281 22.3399 12.4631 22.3152C12.2414 22.2906 11.9704 22.2906 11.601 22.2906H4.13793C3.74384 22.3399 3.42364 22.3645 3.17734 22.3891Z" fill="#1E1716"/>
<path d="M54.9748 14.261C55.024 14.261 55.0733 14.2857 55.0979 14.3596C55.1226 14.4335 55.1226 14.5073 55.0487 14.5812C54.4822 15.5418 53.6447 16.6256 52.561 17.8571C51.4526 19.0886 50.0733 20.197 48.3738 21.2069C46.6743 22.2167 44.8516 22.7093 42.8812 22.7093C41.2556 22.7093 39.9748 22.2906 38.9896 21.4532C38.0043 20.6157 37.5117 19.4335 37.5117 17.931C37.5117 16.2807 38.029 14.6305 39.0634 12.9556C40.0979 11.2807 41.428 9.90144 43.029 8.81769C44.63 7.73395 46.2063 7.19208 47.7334 7.19208C48.6447 7.19208 49.4575 7.33986 50.1718 7.66006C50.8861 7.98025 51.4526 8.37435 51.8467 8.86696C52.2408 9.35957 52.4625 9.85218 52.4625 10.3448C52.4625 11.1083 52.1423 11.798 51.5019 12.3891C50.8615 12.9803 49.8763 13.5714 48.5462 14.1379C47.2162 14.7044 45.295 15.3941 42.8073 16.2315C42.7827 16.3793 42.7827 16.6009 42.7827 16.8719C42.7827 18.1034 43.0536 18.9655 43.5955 19.4827C44.1373 19.9753 44.7038 20.2216 45.295 20.2216C46.8467 20.2216 48.2014 19.9753 49.3098 19.4581C50.4181 18.9655 51.3295 18.3497 52.0191 17.6601C52.7088 16.9704 53.4723 16.0837 54.2605 15.0246L54.7777 14.3349C54.8763 14.2857 54.9255 14.261 54.9748 14.261ZM44.4575 9.26104C44.0388 10.1477 43.6694 11.2069 43.3984 12.463C43.1275 13.7192 42.9304 14.8768 42.8565 15.9113C44.4575 15.2463 45.5905 14.6551 46.2802 14.1625C46.9698 13.6699 47.3886 13.1773 47.5364 12.7093C47.7088 12.2413 47.7827 11.5271 47.7827 10.5665C47.7827 9.87681 47.6102 9.26105 47.2408 8.71917C46.8713 8.1773 46.428 7.90636 45.9107 7.90636C45.3689 7.93099 44.9009 8.37434 44.4575 9.26104Z" fill="#1E1716"/>
<path d="M39.7788 14.4089C39.705 14.4089 39.6557 14.4581 39.6064 14.5566C38.8183 16.1084 37.8823 17.6601 36.7985 19.2118C35.6902 20.7635 34.6557 21.6502 33.6458 21.8966C33.5227 21.8966 33.3995 21.798 33.3256 21.6256C33.2271 21.4532 33.2025 21.2069 33.2025 20.8867C33.2025 20.5911 33.2764 20.2217 33.3995 19.7783L33.6951 18.7685C34.5079 15.9852 35.1237 13.9655 35.567 12.6847C35.7394 12.1429 35.838 11.6256 35.838 11.133C35.838 10.1724 35.5917 9.33498 35.099 8.62069C34.6064 7.9064 34.0153 7.53694 33.3256 7.53694C33.0793 7.53694 32.833 7.5862 32.5375 7.70936C30.3207 8.64532 28.1532 11.3793 26.0596 15.936H25.9119C25.9857 15.6897 26.1828 15.1231 26.4537 14.2118C26.7247 13.3251 27.168 11.9704 27.7838 10.1478C29.3109 5.41871 30.2961 2.36453 30.7394 0.935958C30.8626 0.615761 30.9611 0.295567 31.0596 0L28.1779 0.517235L26.503 0.812805L24.0399 1.25615V1.77339C24.0399 1.77339 26.3059 1.28078 26.0843 1.77339C25.3453 3.4729 23.966 6.7734 23.8675 7.14286C23.4734 8.42365 22.8084 9.92611 22.2665 11.7734C22.0941 12.3892 21.6015 14.064 20.7641 16.798C19.9513 19.532 19.3848 21.33 19.0646 22.1921C18.9907 22.4138 18.9414 22.5616 18.9414 22.6601C18.9414 22.7586 18.966 22.8079 19.0399 22.8571C19.1138 22.8818 19.2123 22.9064 19.3601 22.931C19.5325 22.9557 19.8035 22.9557 20.1729 22.9557C21.6261 22.9557 22.9316 22.7094 24.0892 22.2167C24.3355 22.1182 24.4833 21.9458 24.5572 21.6749C24.7788 20.8374 25.0251 19.9754 25.3207 19.064C25.5917 18.1773 25.838 17.4631 26.0843 16.9458C26.8724 15.1478 27.6114 13.7685 28.3503 12.8571C29.0892 11.9212 29.705 11.4778 30.1976 11.4778C30.3454 11.601 30.4192 11.7734 30.4192 12.0197C30.4192 12.1921 30.37 12.4631 30.2961 12.8079C30.2222 13.1527 30.099 13.5714 29.9759 14.0148C29.8035 14.7044 29.6064 15.3695 29.4094 16.0099C29.1138 17.069 28.8675 17.8571 28.7197 18.399C28.5966 18.7931 28.5473 19.1872 28.5473 19.6059C28.5473 20.665 28.9414 21.5025 29.705 22.0936C30.4685 22.6847 31.3798 23.0049 32.4636 23.0049C33.3503 23.0049 34.2862 22.5616 35.2468 21.6502C36.2074 20.7389 37.0941 19.6552 37.9069 18.399C38.6951 17.1429 39.3601 15.936 39.8281 14.8522C39.8774 14.7291 39.902 14.6305 39.902 14.532C39.8774 14.4828 39.8281 14.4089 39.7788 14.4089Z" fill="#1E1716"/>
<path d="M60.4187 27.7832C59.261 26.7734 58.596 25.5172 58.4236 24.0148H60.7635C61.3054 25.9852 62.7832 26.9704 65.2463 26.9704C66.6748 26.9704 67.8078 26.5763 68.6453 25.7635C69.4827 24.9754 69.8768 23.867 69.8768 22.4384V19.9015H69.7044C69.1625 20.5911 68.4236 21.133 67.5615 21.5517C66.6748 21.9704 65.7389 22.1675 64.7536 22.1675C63.5221 22.1675 62.3645 21.8473 61.3054 21.1823C60.2463 20.5419 59.3842 19.6305 58.7438 18.4729C58.1034 17.3153 57.7832 16.0098 57.7832 14.5566C57.7832 13.1034 58.1034 11.798 58.7438 10.6404C59.3842 9.48275 60.2463 8.57142 61.3054 7.93102C62.3645 7.29063 63.5221 6.9458 64.7536 6.9458C65.7389 6.9458 66.6995 7.14285 67.5615 7.56156C68.4482 7.98028 69.1625 8.52216 69.7044 9.21181H69.8768L70.1477 7.266H72.0935V22.4384C72.0935 23.7931 71.8226 25 71.2807 26.0345C70.7389 27.069 69.9507 27.8818 68.9162 28.4483C67.8817 29.0148 66.6748 29.3103 65.2709 29.3103C63.2019 29.2857 61.5763 28.7931 60.4187 27.7832ZM67.4384 19.1626C68.2019 18.7192 68.7931 18.1034 69.2364 17.2906C69.6798 16.4778 69.9014 15.5665 69.9014 14.532C69.9014 13.4975 69.6798 12.5862 69.2364 11.7734C68.7931 10.9606 68.2019 10.3448 67.4384 9.90147C66.6748 9.45812 65.862 9.26107 64.9507 9.26107C64.0394 9.26107 63.2266 9.48275 62.463 9.90147C61.6995 10.3448 61.1083 10.9606 60.665 11.7734C60.2216 12.5862 60 13.4975 60 14.532C60 15.5665 60.2216 16.4778 60.665 17.2906C61.1083 18.1034 61.6995 18.7192 62.463 19.1626C63.2266 19.6059 64.0394 19.8029 64.9507 19.8029C65.8374 19.8276 66.6748 19.6059 67.4384 19.1626Z" fill="#1E1716"/>
<path d="M77.9067 22.0444C76.7737 21.3547 75.8624 20.3941 75.1973 19.1626C74.5323 17.9311 74.1875 16.5517 74.1875 15.0246C74.1875 13.4976 74.5323 12.1182 75.1973 10.8867C75.8624 9.65519 76.7737 8.6946 77.9067 8.00494C79.0397 7.31529 80.3205 6.97046 81.6998 6.97046C83.0791 6.97046 84.3353 7.31529 85.4929 8.00494C86.6259 8.6946 87.5372 9.65519 88.2023 10.8867C88.8673 12.1182 89.2121 13.4976 89.2121 15.0246C89.2121 16.5517 88.8673 17.9311 88.2023 19.1626C87.5372 20.3941 86.6259 21.3547 85.4929 22.0444C84.3599 22.734 83.0791 23.0788 81.6998 23.0788C80.2959 23.0788 79.0397 22.734 77.9067 22.0444ZM84.3353 20.0246C85.1481 19.5567 85.7885 18.867 86.2811 17.9803C86.7491 17.0936 86.9954 16.1084 86.9954 14.9754C86.9954 13.8424 86.7491 12.8572 86.2811 11.9705C85.8131 11.0838 85.1481 10.4187 84.3353 9.92612C83.5225 9.45814 82.6358 9.21184 81.6752 9.21184C80.7146 9.21184 79.8279 9.45814 79.0151 9.92612C78.2023 10.3941 77.5619 11.0838 77.0693 11.9705C76.6013 12.8572 76.355 13.8424 76.355 14.9754C76.355 16.1084 76.6013 17.0936 77.0693 17.9803C77.5372 18.867 78.2023 19.532 79.0151 20.0246C79.8279 20.4926 80.7146 20.7389 81.6752 20.7389C82.6358 20.7389 83.5225 20.5173 84.3353 20.0246Z" fill="#1E1716"/>
<path d="M94.0395 22.0444C92.9065 21.3547 91.9952 20.3941 91.3302 19.1626C90.6651 17.9311 90.3203 16.5517 90.3203 15.0246C90.3203 13.4976 90.6651 12.1182 91.3302 10.8867C91.9952 9.65519 92.9065 8.6946 94.0395 8.00494C95.1725 7.31529 96.4533 6.97046 97.8326 6.97046C99.2119 6.97046 100.468 7.31529 101.626 8.00494C102.759 8.6946 103.67 9.65519 104.335 10.8867C105 12.1182 105.345 13.4976 105.345 15.0246C105.345 16.5517 105 17.9311 104.335 19.1626C103.67 20.3941 102.759 21.3547 101.626 22.0444C100.493 22.734 99.2119 23.0788 97.8326 23.0788C96.4287 23.0788 95.1725 22.734 94.0395 22.0444ZM100.468 20.0246C101.281 19.5567 101.921 18.867 102.414 17.9803C102.882 17.0936 103.128 16.1084 103.128 14.9754C103.128 13.8424 102.882 12.8572 102.414 11.9705C101.946 11.0838 101.281 10.4187 100.468 9.92612C99.6553 9.45814 98.7686 9.21184 97.808 9.21184C96.8474 9.21184 95.9607 9.45814 95.1479 9.92612C94.3351 10.3941 93.6947 11.0838 93.2021 11.9705C92.7341 12.8572 92.4878 13.8424 92.4878 14.9754C92.4878 16.1084 92.7341 17.0936 93.2021 17.9803C93.6701 18.867 94.3351 19.532 95.1479 20.0246C95.9607 20.4926 96.8474 20.7389 97.808 20.7389C98.7686 20.7389 99.6553 20.5173 100.468 20.0246Z" fill="#1E1716"/>
<path d="M110 22.0443C108.916 21.3547 108.054 20.3941 107.414 19.1626C106.773 17.931 106.453 16.5517 106.453 15.0246C106.453 13.4975 106.773 12.1182 107.414 10.8867C108.054 9.65517 108.916 8.69458 110 8.00492C111.084 7.31527 112.266 6.97044 113.497 6.97044C115.493 6.97044 117.192 7.78325 118.522 9.43349H118.695V1.08374H120.911V22.8079H118.965L118.695 20.665H118.522C117.167 22.2906 115.493 23.1281 113.497 23.1281C112.266 23.0788 111.084 22.734 110 22.0443ZM116.158 20.0246C116.921 19.5566 117.537 18.867 118.005 17.9803C118.473 17.0936 118.719 16.1084 118.719 14.9754C118.719 13.8424 118.473 12.8571 118.005 11.9704C117.537 11.0837 116.921 10.4187 116.158 9.9261C115.394 9.45812 114.581 9.21182 113.694 9.21182C112.808 9.21182 111.995 9.45812 111.231 9.9261C110.468 10.3941 109.852 11.0837 109.384 11.9704C108.916 12.8571 108.67 13.8424 108.67 14.9754C108.67 16.1084 108.916 17.0936 109.384 17.9803C109.852 18.867 110.468 19.532 111.231 20.0246C111.995 20.4926 112.808 20.7389 113.694 20.7389C114.557 20.7389 115.394 20.5172 116.158 20.0246Z" fill="#1E1716"/>
</svg>
