<svg width="17" height="22" viewBox="0 0 17 22" fill="none" xmlns="http://www.w3.org/2000/svg">
<path d="M8.5 11C9.08438 11 9.58464 10.7846 10.0008 10.3538C10.4169 9.92292 10.625 9.405 10.625 8.8C10.625 8.195 10.4169 7.67708 10.0008 7.24625C9.58464 6.81542 9.08438 6.6 8.5 6.6C7.91563 6.6 7.41536 6.81542 6.99922 7.24625C6.58307 7.67708 6.375 8.195 6.375 8.8C6.375 9.405 6.58307 9.92292 6.99922 10.3538C7.41536 10.7846 7.91563 11 8.5 11ZM8.5 22C5.64896 19.4883 3.51953 17.1554 2.11172 15.0013C0.703906 12.8471 0 10.8533 0 9.02C0 6.27 0.854427 4.07917 2.56328 2.4475C4.27214 0.815834 6.25104 0 8.5 0C10.749 0 12.7279 0.815834 14.4367 2.4475C16.1456 4.07917 17 6.27 17 9.02C17 10.8533 16.2961 12.8471 14.8883 15.0013C13.4805 17.1554 11.351 19.4883 8.5 22Z" fill="white"/>
</svg>
