<svg width="200" height="83" viewBox="0 0 200 83" fill="none" xmlns="http://www.w3.org/2000/svg">
<path d="M193.523 65.0234C193.483 64.9012 193.401 64.8197 193.32 64.8197C193.238 64.8197 193.116 64.8604 193.034 64.9827L192.057 66.2864C190.549 68.2827 189.123 69.9531 187.779 71.2568C186.475 72.5606 184.764 73.7013 182.645 74.6384C180.527 75.5755 178.001 76.0643 175.067 76.0643C173.967 76.0643 172.908 75.6162 171.849 74.6791C170.79 73.7421 170.301 72.1124 170.301 69.7902C170.301 69.3013 170.301 68.8938 170.341 68.6086C175.067 67.0605 178.653 65.7567 181.179 64.6975C183.705 63.6382 185.538 62.5382 186.76 61.3974C187.942 60.2566 188.553 58.9936 188.553 57.5677C188.553 56.6306 188.186 55.6936 187.412 54.7565C186.638 53.8195 185.579 53.0454 184.234 52.475C182.89 51.8639 181.342 51.5787 179.59 51.5787C176.697 51.5787 173.723 52.5972 170.708 54.6343C167.652 56.6714 165.167 59.2788 163.212 62.4159C161.256 65.553 160.278 68.6901 160.278 71.7865C160.278 73.7421 160.726 75.3717 161.582 76.7162C160.441 77.694 159.3 78.3051 158.2 78.5496C157.956 78.5496 157.712 78.3866 157.549 78.02C157.386 77.694 157.263 77.2051 157.263 76.6347C157.263 76.1051 157.386 75.4125 157.671 74.5569C157.752 74.1088 158.363 72.2346 159.423 68.9346C160.482 65.6345 161.338 63.0271 161.989 61.2344C162.356 60.3381 162.519 59.3603 162.519 58.2603C162.519 56.4677 162.03 54.9195 161.052 53.575C160.075 52.2305 158.852 51.5379 157.467 51.5379C156.978 51.5379 156.449 51.6602 155.919 51.8639C151.478 53.6158 147.119 58.7899 142.922 67.3457H142.637L145.041 60.4603C145.326 59.5233 145.489 58.6677 145.489 57.9344C145.489 56.7121 145.163 55.6121 144.552 54.6343C143.941 53.6565 143.167 52.9231 142.271 52.3935C141.374 51.8639 140.519 51.5787 139.704 51.5787C139.256 51.5787 138.889 51.6602 138.604 51.7824C137.341 52.3935 136.119 53.2898 135.019 54.4306C134.57 54.8787 134.081 55.4084 133.593 55.9788C133.389 55.5306 133.144 55.0824 132.778 54.675C132.004 53.738 130.944 52.9639 129.6 52.3935C128.255 51.7824 126.707 51.4972 124.955 51.4972C122.063 51.4972 119.089 52.5157 116.074 54.5528C113.018 56.5899 110.533 59.1974 108.577 62.3345C106.622 65.4716 105.644 68.6087 105.644 71.705C105.644 72.5606 105.725 73.3754 105.929 74.1088C102.833 75.3717 99.9808 76.0236 97.3733 76.0236C95.7844 76.0236 94.6029 75.4125 93.7881 74.1902C92.9732 72.968 92.6065 71.4606 92.6065 69.6679C92.6065 67.5901 92.8917 65.1864 93.4214 62.4974C93.9918 59.8085 94.6844 57.5269 95.6214 55.6121C96.5177 53.6972 97.4548 52.7602 98.4326 52.7602C99.4104 52.7602 100.184 53.5343 100.755 55.1232C101.325 56.7121 101.61 59.0344 101.61 62.1715C101.61 62.4974 101.733 62.7419 102.018 62.9456C102.262 63.1493 102.588 63.2308 102.996 63.2308C104.096 63.2308 105.277 62.9456 106.54 62.3345C107.803 61.7233 108.822 60.9492 109.637 60.0122C110.451 59.0344 110.859 58.0566 110.859 57.038C110.859 55.2862 110.003 53.9009 108.333 52.8824C106.662 51.8639 104.381 51.375 101.57 51.375C99.1659 51.375 96.477 52.3528 93.4214 54.2676C90.4065 56.2232 87.8398 58.7492 85.762 61.8455C85.762 61.8863 85.7212 61.8863 85.7212 61.927C85.436 61.4789 85.1508 61.0715 84.7842 60.664C83.3582 59.0344 81.1582 57.4862 78.1433 56.0195C75.3321 54.675 73.3765 53.738 72.3172 53.1269C71.258 52.5157 70.4431 51.8639 69.9135 51.1713C69.3839 50.4786 69.0987 49.5416 69.0987 48.4008C69.0987 47.3416 69.4246 46.2823 70.0357 45.3045C70.6876 44.3267 71.5432 43.5118 72.6432 42.9415C73.7432 42.3303 74.9654 42.0451 76.2284 42.0451C77.8988 42.0451 79.447 42.6563 80.9137 43.9193C82.3804 45.1822 83.6434 46.9341 84.7027 49.2564C85.7212 51.5379 86.4546 54.1861 86.7805 57.1603C86.7805 57.3232 86.8212 57.364 86.9435 57.364C87.0249 57.364 87.1064 57.2825 87.1879 57.1603L89.7546 39.234C89.7546 39.1118 89.7139 39.071 89.5917 39.0303C89.5102 39.0303 89.4287 39.071 89.3472 39.234C89.2657 39.3969 89.062 39.7229 88.8176 40.1303C88.5731 40.5377 88.2472 40.9859 87.8398 41.3525C87.4324 41.76 86.862 41.9637 86.1286 41.9637C85.5583 41.9637 84.4582 41.8414 82.9101 41.6377C80.8322 41.3525 78.9989 41.1896 77.4507 41.1896C74.0284 41.1896 70.9728 41.8414 68.4061 43.1044C65.7986 44.3674 63.8023 46.1193 62.4171 48.3193C61.0318 50.5194 60.3392 53.0046 60.3392 55.7751C60.3392 57.1603 60.5837 58.3418 61.1133 59.3196C61.6022 60.2974 62.3763 61.1529 63.4356 61.927C64.4541 62.7011 65.9616 63.5974 67.9172 64.5752C70.4024 65.879 72.358 66.9382 73.7025 67.7938C75.0469 68.6494 76.1062 69.505 76.8803 70.3605C77.6137 71.2161 77.9803 72.1532 77.9803 73.0902C77.9803 74.2717 77.6136 75.3717 76.921 76.3903C76.1877 77.4088 75.2099 78.1829 73.9469 78.794C72.6839 79.4052 71.2987 79.6903 69.7505 79.6903C66.5727 79.6903 63.9245 78.4274 61.8467 75.9421C59.7688 73.4162 58.6281 69.4235 58.4244 63.9641C58.3836 63.8419 58.3429 63.8011 58.2614 63.7604C58.1799 63.7604 58.1392 63.8011 58.0984 63.9641L55.4502 82.5015C55.4095 82.6645 55.4502 82.7052 55.6132 82.7052C55.7354 82.7052 55.8577 82.6237 55.8984 82.5015C56.4688 81.5237 56.9577 80.8311 57.4466 80.4237C57.9355 79.9755 58.5059 79.7718 59.1577 79.7718C59.9318 79.7718 61.1133 79.8941 62.6615 80.0978C64.7393 80.383 66.7764 80.5459 68.8135 80.5459C71.4617 80.5459 74.1506 79.9348 77.0025 78.7126C79.3655 77.694 81.3619 76.3495 83.073 74.6384C83.5619 76.1866 84.4582 77.4088 85.762 78.3866C87.8398 79.8941 90.4065 80.6682 93.4214 80.6682C95.5399 80.6682 97.9437 80.0978 100.633 78.9977C102.588 78.1829 104.544 77.0829 106.499 75.6569C106.948 76.6755 107.64 77.531 108.496 78.2644C110.37 79.8533 112.814 80.6274 115.87 80.6274C119.618 80.6274 123.081 79.6904 126.259 77.7755C127.807 76.8384 129.233 75.9014 130.496 74.8828C129.967 76.3903 129.478 77.8162 128.989 79.12C128.867 79.4459 128.785 79.7311 128.785 79.9755C128.785 80.1385 128.826 80.2607 128.948 80.3422C129.07 80.383 129.274 80.4237 129.559 80.4644C129.926 80.5052 130.455 80.5052 131.148 80.5052C134.163 80.5052 136.811 80.057 139.093 79.12C139.582 78.957 139.907 78.5903 140.03 78.1014C140.437 76.6347 140.926 75.0458 141.496 73.3347C142.067 71.6235 142.596 70.2383 143.045 69.2605C144.674 65.8382 146.182 63.2715 147.648 61.5604C149.074 59.8085 150.337 58.9529 151.315 58.9529C151.723 59.2788 151.967 59.6455 151.967 60.0937C151.967 60.2974 151.886 60.6233 151.763 60.99C151.641 61.3566 151.56 61.6418 151.519 61.7641L150.867 63.7604C150.5 65.0641 150.134 66.2864 149.767 67.5086C149.156 69.4642 148.708 70.9717 148.422 72.0309C148.178 72.7643 148.097 73.5384 148.097 74.2717C148.097 76.2681 148.871 77.857 150.419 78.9977C151.967 80.1385 153.8 80.7089 155.96 80.7089C157.752 80.7089 159.626 79.8533 161.541 78.1422C161.826 77.8977 162.071 77.6533 162.315 77.4088C162.601 77.7348 162.886 78.0199 163.212 78.3051C165.086 79.8941 167.53 80.6682 170.586 80.6682C174.334 80.6682 177.797 79.7311 180.975 77.8162C184.153 75.9014 186.801 73.8236 188.879 71.5013C190.957 69.179 192.546 67.142 193.605 65.3493C193.523 65.2678 193.564 65.1456 193.523 65.0234ZM116.685 61.4381C117.214 59.0751 117.907 57.038 118.722 55.3676C119.537 53.6972 120.433 52.8824 121.411 52.8824C122.389 52.8824 123.203 53.412 123.937 54.4306C124.629 55.4491 124.996 56.5899 124.996 57.8936C124.996 59.6862 124.833 61.0307 124.548 61.927C124.222 62.8233 123.448 63.7197 122.144 64.6567C120.881 65.5938 118.722 66.6938 115.707 67.9568C115.788 66.0012 116.155 63.8011 116.685 61.4381ZM127.889 74.6384C125.77 75.5755 123.244 76.0643 120.311 76.0643C119.211 76.0643 118.151 75.6162 117.092 74.6791C116.033 73.7421 115.544 72.1124 115.544 69.7902C115.544 69.3013 115.544 68.8938 115.585 68.6086C120.311 67.0605 123.896 65.7567 126.422 64.6975C128.948 63.6382 130.781 62.5382 132.004 61.3974C133.104 60.3381 133.715 59.1973 133.796 57.8936C134.407 57.5269 134.856 57.364 135.181 57.364C135.507 57.3232 135.67 57.6084 135.67 58.1788C135.67 58.464 135.63 58.7492 135.507 59.0344L134.326 62.7419C133.185 66.4901 132.085 69.8716 131.026 72.968C130.089 73.5384 129.07 74.1088 127.889 74.6384ZM173.438 55.4084C174.253 53.738 175.149 52.9231 176.127 52.9231C177.105 52.9231 177.919 53.4528 178.653 54.4713C179.345 55.4899 179.712 56.6306 179.712 57.9344C179.712 59.727 179.549 61.0715 179.264 61.9678C178.938 62.8641 178.164 63.7604 176.86 64.6975C175.597 65.6345 173.438 66.7345 170.423 67.9975C170.586 66.0419 170.953 63.8419 171.482 61.4789C171.93 59.0751 172.623 57.0788 173.438 55.4084Z" fill="white"/>
<path d="M5.25566 37.0339C4.07415 37.1154 2.77042 37.1154 1.38521 37.1154C1.22224 37.1154 1.10002 37.0339 1.10002 36.9117C1.10002 36.8302 1.14076 36.7895 1.22225 36.708C1.30373 36.6265 1.38521 36.6265 1.50744 36.6265C2.77042 36.5858 3.87045 36.3006 4.76676 35.771C5.66308 35.2413 6.51865 34.2635 7.29274 32.919C8.10757 31.5338 8.96314 29.5375 9.9002 26.93L17.5596 4.56291H16.7448C16.1337 4.56291 14.8299 5.25552 12.8336 6.59999C10.8373 7.9852 8.67795 9.77784 6.35569 12.0186C4.03342 14.2594 2.03708 16.6224 0.325934 19.1484C0.244451 19.2706 0.162965 19.3521 0.0814819 19.3521C-1.24455e-06 19.3521 0 19.2706 0 19.1484L8.84092 1.38508C8.88166 1.30359 8.96315 1.30359 9.00389 1.30359C9.04463 1.30359 9.12611 1.34434 9.12611 1.38508C9.16685 2.28139 9.85946 2.93325 11.2039 3.29992C12.5077 3.6666 14.5447 3.82957 17.2337 3.82957H28.3154C30.5562 3.82957 32.3081 3.74808 33.571 3.58512C34.834 3.42215 35.8118 3.13696 36.4637 2.81103C37.1156 2.44436 37.6859 1.9962 38.1341 1.38508C38.1748 1.30359 38.2563 1.30359 38.3378 1.30359C38.4193 1.30359 38.46 1.34434 38.46 1.38508L35.1192 19.1484C35.0785 19.3114 34.997 19.3928 34.9155 19.3521C34.834 19.3521 34.7933 19.2299 34.7933 19.0262C34.7933 16.5002 34.3859 14.1372 33.6118 11.8964C32.8377 9.65561 31.9006 7.90373 30.8414 6.51852C29.7821 5.17404 28.8858 4.48144 28.1932 4.48144H27.6228L19.9226 26.8893C19.2708 28.8449 18.9448 30.4338 18.9448 31.6968C18.9448 33.4487 19.4337 34.6709 20.3708 35.3635C21.3078 36.0969 22.5301 36.4636 23.9968 36.5043C24.2005 36.5043 24.3227 36.5858 24.4042 36.7487C24.4449 36.9117 24.4042 36.9932 24.2005 36.9932C22.8968 36.9932 21.7153 36.9525 20.6152 36.9117C20.2486 36.871 19.8004 36.871 19.1893 36.871H6.84458C6.19272 36.9525 5.66307 36.9932 5.25566 37.0339Z" fill="white"/>
<path d="M90.9346 23.5893C91.0161 23.5893 91.0976 23.6301 91.1383 23.7523C91.1791 23.8745 91.1791 23.9967 91.0568 24.119C90.1198 25.7079 88.7346 27.5005 86.9419 29.5376C85.1086 31.5747 82.827 33.408 80.0159 35.0784C77.2047 36.7488 74.1898 37.5637 70.9305 37.5637C68.2416 37.5637 66.123 36.8711 64.4933 35.4858C62.8637 34.1006 62.0488 32.145 62.0488 29.6598C62.0488 26.9301 62.9044 24.2004 64.6156 21.43C66.3267 18.6596 68.5267 16.3781 71.1749 14.5854C73.8231 12.7928 76.4306 11.8965 78.9566 11.8965C80.464 11.8965 81.8085 12.1409 82.99 12.6706C84.1715 13.2002 85.1086 13.8521 85.7604 14.6669C86.4123 15.4817 86.779 16.2966 86.779 17.1114C86.779 18.3744 86.2493 19.5152 85.19 20.493C84.1308 21.4708 82.5011 22.4486 80.3011 23.3856C78.101 24.3227 74.9232 25.4634 70.8083 26.8486C70.7675 27.0931 70.7675 27.4598 70.7675 27.9079C70.7675 29.945 71.2157 31.3709 72.112 32.2265C73.0083 33.0414 73.9454 33.4488 74.9232 33.4488C77.4899 33.4488 79.7307 33.0414 81.564 32.1858C83.3974 31.371 84.9049 30.3524 86.0456 29.2116C87.1864 28.0709 88.4494 26.6042 89.7531 24.8523L90.6087 23.7115C90.7716 23.6301 90.8531 23.5893 90.9346 23.5893ZM73.538 15.3188C72.8453 16.7855 72.2342 18.5374 71.7861 20.6152C71.3379 22.693 71.012 24.6078 70.8898 26.319C73.538 25.219 75.4121 24.2412 76.5528 23.4264C77.6936 22.6115 78.3862 21.7967 78.6306 21.0226C78.9158 20.2485 79.0381 19.067 79.0381 17.4781C79.0381 16.3373 78.7529 15.3188 78.1417 14.4225C77.5306 13.5262 76.7973 13.078 75.9417 13.078C75.0454 13.1187 74.2713 13.8521 73.538 15.3188Z" fill="white"/>
<path d="M65.7994 23.8338C65.6772 23.8338 65.5957 23.9153 65.5142 24.0783C64.2105 26.645 62.6623 29.2117 60.8697 31.7784C59.0363 34.3451 57.3252 35.8118 55.6547 36.2192C55.451 36.2192 55.2473 36.0563 55.1251 35.7711C54.9621 35.4859 54.9214 35.0785 54.9214 34.5488C54.9214 34.0599 55.0436 33.4488 55.2473 32.7155L55.7362 31.0451C57.0807 26.4413 58.0992 23.1005 58.8326 20.9819C59.1178 20.0856 59.2807 19.23 59.2807 18.4152C59.2807 16.8263 58.8733 15.4411 58.0585 14.2595C57.2437 13.078 56.2659 12.4669 55.1251 12.4669C54.7177 12.4669 54.3103 12.5484 53.8214 12.7521C50.1546 14.3003 46.5694 18.8226 43.1063 26.3598H42.8619C42.9841 25.9524 43.31 25.0153 43.7582 23.5079C44.2064 22.0412 44.9397 19.8004 45.9582 16.7855C48.4842 8.96313 50.1139 3.91118 50.8472 1.54817C51.0509 1.01853 51.2139 0.488899 51.3769 0L46.6101 0.855563L43.8397 1.34447L39.7655 2.07781V2.93338C39.7655 2.93338 43.5138 2.11855 43.1471 2.93338C41.9248 5.74455 39.6433 11.2039 39.4803 11.8151C38.8285 13.9336 37.7285 16.4188 36.8321 19.4745C36.547 20.493 35.7321 23.2634 34.3469 27.7857C33.0024 32.308 32.0654 35.2822 31.5357 36.7081C31.4135 37.0748 31.332 37.3193 31.332 37.4822C31.332 37.6452 31.3728 37.7267 31.495 37.8082C31.6172 37.8489 31.7802 37.8896 32.0246 37.9304C32.3098 37.9711 32.758 37.9711 33.3691 37.9711C35.7729 37.9711 37.9322 37.5637 39.847 36.7489C40.2544 36.5859 40.4989 36.3007 40.6211 35.8526C40.9878 34.4674 41.3952 33.0414 41.8841 31.534C42.3322 30.0673 42.7397 28.8858 43.1471 28.0302C44.4508 25.0561 45.6731 22.7745 46.8953 21.2671C48.1176 19.7189 49.1361 18.9856 49.9509 18.9856C50.1954 19.1893 50.3176 19.4745 50.3176 19.8819C50.3176 20.1671 50.2361 20.6152 50.1139 21.1856C49.9917 21.756 49.788 22.4486 49.5843 23.1819C49.2991 24.3227 48.9731 25.4227 48.6472 26.482C48.1583 28.2339 47.7509 29.5376 47.5064 30.4339C47.3027 31.0858 47.2212 31.7377 47.2212 32.4303C47.2212 34.1822 47.8731 35.5674 49.1361 36.5452C50.3991 37.523 51.9065 38.0526 53.6991 38.0526C55.1658 38.0526 56.714 37.3193 58.3029 35.8118C59.8919 34.3044 61.3586 32.5118 62.703 30.4339C64.0068 28.3561 65.1068 26.3598 65.8809 24.5672C65.9624 24.3634 66.0031 24.2005 66.0031 24.0375C65.9624 23.956 65.8809 23.8338 65.7994 23.8338Z" fill="white"/>
<path d="M99.9394 45.9564C98.0246 44.286 96.9246 42.2082 96.6394 39.7229H100.51C101.406 42.9822 103.851 44.6119 107.925 44.6119C110.288 44.6119 112.162 43.96 113.547 42.6156C114.932 41.3118 115.584 39.4785 115.584 37.1155V32.9191H115.299C114.403 34.0598 113.18 34.9562 111.754 35.6488C110.288 36.3414 108.74 36.6673 107.11 36.6673C105.073 36.6673 103.158 36.1377 101.406 35.0376C99.6542 33.9784 98.2283 32.4709 97.169 30.5561C96.1097 28.6412 95.5801 26.4819 95.5801 24.0782C95.5801 21.6744 96.1097 19.5151 97.169 17.6002C98.2283 15.6854 99.6542 14.178 101.406 13.1187C103.158 12.0594 105.073 11.489 107.11 11.489C108.74 11.489 110.329 11.8149 111.754 12.5076C113.221 13.2002 114.403 14.0965 115.299 15.2372H115.584L116.032 12.0187H119.251V37.1155C119.251 39.3562 118.803 41.3526 117.906 43.0637C117.01 44.7749 115.706 46.1193 113.995 47.0564C112.284 47.9935 110.288 48.4824 107.966 48.4824C104.543 48.4416 101.854 47.6268 99.9394 45.9564ZM111.551 31.6968C112.814 30.9635 113.792 29.9449 114.525 28.6005C115.258 27.256 115.625 25.7486 115.625 24.0374C115.625 22.3263 115.258 20.8188 114.525 19.4744C113.792 18.1299 112.814 17.1113 111.551 16.378C110.288 15.6447 108.943 15.3187 107.436 15.3187C105.928 15.3187 104.584 15.6854 103.321 16.378C102.058 17.1113 101.08 18.1299 100.347 19.4744C99.6135 20.8188 99.2468 22.3263 99.2468 24.0374C99.2468 25.7486 99.6135 27.256 100.347 28.6005C101.08 29.9449 102.058 30.9635 103.321 31.6968C104.584 32.4302 105.928 32.7561 107.436 32.7561C108.903 32.7969 110.288 32.4302 111.551 31.6968Z" fill="white"/>
<path d="M128.867 36.4636C126.993 35.3229 125.485 33.7339 124.385 31.6969C123.285 29.6598 122.715 27.3783 122.715 24.8523C122.715 22.3263 123.285 20.0448 124.385 18.0077C125.485 15.9706 126.993 14.3817 128.867 13.2409C130.741 12.1002 132.859 11.5298 135.141 11.5298C137.423 11.5298 139.5 12.1002 141.415 13.2409C143.289 14.3817 144.797 15.9706 145.897 18.0077C146.997 20.0448 147.567 22.3263 147.567 24.8523C147.567 27.3783 146.997 29.6598 145.897 31.6969C144.797 33.7339 143.289 35.3229 141.415 36.4636C139.541 37.6044 137.423 38.1748 135.141 38.1748C132.819 38.1748 130.741 37.6044 128.867 36.4636ZM139.5 33.1228C140.845 32.3487 141.904 31.208 142.719 29.7413C143.493 28.2746 143.9 26.6449 143.9 24.7708C143.9 22.8967 143.493 21.267 142.719 19.8003C141.945 18.3336 140.845 17.2336 139.5 16.4188C138.156 15.6447 136.689 15.2373 135.1 15.2373C133.511 15.2373 132.045 15.6447 130.7 16.4188C129.356 17.1929 128.296 18.3336 127.482 19.8003C126.708 21.267 126.3 22.8967 126.3 24.7708C126.3 26.6449 126.708 28.2746 127.482 29.7413C128.256 31.208 129.356 32.308 130.7 33.1228C132.045 33.8969 133.511 34.3043 135.1 34.3043C136.689 34.3043 138.156 33.9376 139.5 33.1228Z" fill="white"/>
<path d="M155.552 36.4636C153.678 35.3229 152.171 33.7339 151.071 31.6969C149.971 29.6598 149.4 27.3783 149.4 24.8523C149.4 22.3263 149.971 20.0448 151.071 18.0077C152.171 15.9706 153.678 14.3817 155.552 13.2409C157.426 12.1002 159.545 11.5298 161.827 11.5298C164.108 11.5298 166.186 12.1002 168.101 13.2409C169.975 14.3817 171.482 15.9706 172.582 18.0077C173.682 20.0448 174.253 22.3263 174.253 24.8523C174.253 27.3783 173.682 29.6598 172.582 31.6969C171.482 33.7339 169.975 35.3229 168.101 36.4636C166.227 37.6044 164.108 38.1748 161.827 38.1748C159.504 38.1748 157.426 37.6044 155.552 36.4636ZM166.186 33.1228C167.53 32.3487 168.59 31.208 169.404 29.7413C170.179 28.2746 170.586 26.6449 170.586 24.7708C170.586 22.8967 170.179 21.267 169.404 19.8003C168.63 18.3336 167.53 17.2336 166.186 16.4188C164.841 15.6447 163.375 15.2373 161.786 15.2373C160.197 15.2373 158.73 15.6447 157.386 16.4188C156.041 17.1929 154.982 18.3336 154.167 19.8003C153.393 21.267 152.986 22.8967 152.986 24.7708C152.986 26.6449 153.393 28.2746 154.167 29.7413C154.941 31.208 156.041 32.308 157.386 33.1228C158.73 33.8969 160.197 34.3043 161.786 34.3043C163.375 34.3043 164.841 33.9376 166.186 33.1228Z" fill="white"/>
<path d="M181.951 36.4638C180.158 35.323 178.732 33.7341 177.673 31.697C176.614 29.6599 176.084 27.3784 176.084 24.8524C176.084 22.3265 176.614 20.0449 177.673 18.0079C178.732 15.9708 180.158 14.3819 181.951 13.2411C183.743 12.1003 185.699 11.53 187.736 11.53C191.036 11.53 193.847 12.8744 196.047 15.6041H196.333V1.79272H199.999V37.7268H196.781L196.333 34.1823H196.047C193.807 36.8712 191.036 38.2564 187.736 38.2564C185.699 38.1749 183.743 37.6046 181.951 36.4638ZM192.136 33.123C193.399 32.3489 194.418 31.2081 195.192 29.7414C195.966 28.2747 196.373 26.6451 196.373 24.771C196.373 22.8969 195.966 21.2672 195.192 19.8005C194.418 18.3338 193.399 17.2338 192.136 16.4189C190.873 15.6449 189.529 15.2374 188.062 15.2374C186.595 15.2374 185.251 15.6449 183.988 16.4189C182.725 17.193 181.706 18.3338 180.932 19.8005C180.158 21.2672 179.751 22.8969 179.751 24.771C179.751 26.6451 180.158 28.2747 180.932 29.7414C181.706 31.2081 182.725 32.3082 183.988 33.123C185.251 33.8971 186.595 34.3045 188.062 34.3045C189.488 34.3045 190.873 33.9378 192.136 33.123Z" fill="white"/>
</svg>
