<svg width="18" height="18" viewBox="0 0 18 18" fill="none" xmlns="http://www.w3.org/2000/svg">
<path d="M16 8.97507C16 7.03047 15.3208 5.38089 13.9625 4.02632C12.6042 2.67175 10.95 1.99446 9 1.99446V0C10.25 0 11.4208 0.236842 12.5125 0.710526C13.6042 1.18421 14.5542 1.8241 15.3625 2.63019C16.1708 3.43629 16.8125 4.38366 17.2875 5.4723C17.7625 6.56094 18 7.72853 18 8.97507H16ZM12 8.97507C12 8.14404 11.7083 7.43767 11.125 6.85596C10.5417 6.27424 9.83333 5.98338 9 5.98338V3.98892C10.3833 3.98892 11.5625 4.47507 12.5375 5.44737C13.5125 6.41967 14 7.59557 14 8.97507H12ZM16.95 18C14.8 18 12.7042 17.5222 10.6625 16.5665C8.62083 15.6108 6.8125 14.3476 5.2375 12.777C3.6625 11.2064 2.39583 9.40305 1.4375 7.36704C0.479167 5.33103 0 3.241 0 1.09695C0 0.797784 0.1 0.548476 0.3 0.34903C0.5 0.149584 0.75 0.0498615 1.05 0.0498615H5.1C5.33333 0.0498615 5.54167 0.124654 5.725 0.274238C5.90833 0.423823 6.01667 0.614958 6.05 0.847645L6.7 4.33795C6.73333 4.57064 6.72917 4.78255 6.6875 4.97368C6.64583 5.16482 6.55 5.33518 6.4 5.48476L4 7.92798C4.7 9.12465 5.575 10.2465 6.625 11.2936C7.675 12.3407 8.83333 13.2465 10.1 14.0111L12.45 11.6676C12.6 11.518 12.7958 11.4058 13.0375 11.331C13.2792 11.2562 13.5167 11.2355 13.75 11.2687L17.2 11.9668C17.4333 12.0166 17.625 12.1288 17.775 12.3033C17.925 12.4778 18 12.6814 18 12.9141V16.9529C18 17.2521 17.9 17.5014 17.7 17.7008C17.5 17.9003 17.25 18 16.95 18Z" fill="white"/>
</svg>
