<svg width="1440" height="1529" viewBox="0 0 1440 1529" fill="none" xmlns="http://www.w3.org/2000/svg">
<path d="M308.423 918.561C208.629 1040.02 137.821 1124.26 0 1215.08V512.034C55.4325 569.766 94.0319 592.594 178.698 613.041C205.667 382.138 154.924 322.416 0 284.019V0C413.32 125.098 516.832 307.117 435.022 695.546C855.144 700.785 1068.91 603.479 1440 373.025V695.546C1109.61 859.997 903.907 1100.57 876.816 1215.08C849.725 1329.59 1197.48 1313.05 1440 1193.58V1519.1C583.488 1572.27 450.698 1416.74 759.595 918.561C628.096 944.081 412.862 948.983 308.423 918.561Z" fill="#E7645B"/>
</svg>
