<?xml version="1.0" encoding="utf-8"?>
<!-- Generator: Adobe Illustrator 23.1.0, SVG Export Plug-In . SVG Version: 6.00 Build 0)  -->
<svg version="1.1" id="Layer_1" xmlns="http://www.w3.org/2000/svg" xmlns:xlink="http://www.w3.org/1999/xlink" x="0px" y="0px"
	 viewBox="0 0 800 800" style="enable-background:new 0 0 800 800;" xml:space="preserve">
<g>
	<path d="M629.5,457.8c-0.1-0.3-0.3-0.5-0.5-0.5c-0.2,0-0.5,0.1-0.7,0.4l-2.4,3.2c-3.7,4.9-7.2,9-10.5,12.2c-3.2,3.2-7.4,6-12.6,8.3
		c-5.2,2.3-11.4,3.5-18.6,3.5c-2.7,0-5.3-1.1-7.9-3.4c-2.6-2.3-3.8-6.3-3.8-12c0-1.2,0-2.2,0.1-2.9c11.6-3.8,20.4-7,26.6-9.6
		c6.2-2.6,10.7-5.3,13.7-8.1c2.9-2.8,4.4-5.9,4.4-9.4c0-2.3-0.9-4.6-2.8-6.9c-1.9-2.3-4.5-4.2-7.8-5.6c-3.3-1.5-7.1-2.2-11.4-2.2
		c-7.1,0-14.4,2.5-21.8,7.5c-7.5,5-13.6,11.4-18.4,19.1c-4.8,7.7-7.2,15.4-7.2,23c0,4.8,1.1,8.8,3.2,12.1c-2.8,2.4-5.6,3.9-8.3,4.5
		c-0.6,0-1.2-0.4-1.6-1.3c-0.4-0.8-0.7-2-0.7-3.4c0-1.3,0.3-3,1-5.1c0.2-1.1,1.7-5.7,4.3-13.8c2.6-8.1,4.7-14.5,6.3-18.9
		c0.9-2.2,1.3-4.6,1.3-7.3c0-4.4-1.2-8.2-3.6-11.5c-2.4-3.3-5.4-5-8.8-5c-1.2,0-2.5,0.3-3.8,0.8c-10.9,4.3-21.6,17-31.9,38h-0.7
		l5.9-16.9c0.7-2.3,1.1-4.4,1.1-6.2c0-3-0.8-5.7-2.3-8.1c-1.5-2.4-3.4-4.2-5.6-5.5c-2.2-1.3-4.3-2-6.3-2c-1.1,0-2,0.2-2.7,0.5
		c-3.1,1.5-6.1,3.7-8.8,6.5c-1.1,1.1-2.3,2.4-3.5,3.8c-0.5-1.1-1.1-2.2-2-3.2c-1.9-2.3-4.5-4.2-7.8-5.6c-3.3-1.5-7.1-2.2-11.4-2.2
		c-7.1,0-14.4,2.5-21.8,7.5c-7.5,5-13.6,11.4-18.4,19.1c-4.8,7.7-7.2,15.4-7.2,23c0,2.1,0.2,4.1,0.7,5.9c-7.6,3.1-14.6,4.7-21,4.7
		c-3.9,0-6.8-1.5-8.8-4.5c-2-3-2.9-6.7-2.9-11.1c0-5.1,0.7-11,2-17.6c1.4-6.6,3.1-12.2,5.4-16.9c2.2-4.7,4.5-7,6.9-7
		c2.4,0,4.3,1.9,5.7,5.8c1.4,3.9,2.1,9.6,2.1,17.3c0,0.8,0.3,1.4,1,1.9c0.6,0.5,1.4,0.7,2.4,0.7c2.7,0,5.6-0.7,8.7-2.2
		c3.1-1.5,5.6-3.4,7.6-5.7c2-2.4,3-4.8,3-7.3c0-4.3-2.1-7.7-6.2-10.2c-4.1-2.5-9.7-3.7-16.6-3.7c-5.9,0-12.5,2.4-20,7.1
		c-7.4,4.8-13.7,11-18.8,18.6c0,0.1-0.1,0.1-0.1,0.2c-0.7-1.1-1.4-2.1-2.3-3.1c-3.5-4-8.9-7.8-16.3-11.4c-6.9-3.3-11.7-5.6-14.3-7.1
		c-2.6-1.5-4.6-3.1-5.9-4.8c-1.3-1.7-2-4-2-6.8c0-2.6,0.8-5.2,2.3-7.6c1.6-2.4,3.7-4.4,6.4-5.8c2.7-1.5,5.7-2.2,8.8-2.2
		c4.1,0,7.9,1.5,11.5,4.6c3.6,3.1,6.7,7.4,9.3,13.1c2.5,5.6,4.3,12.1,5.1,19.4c0,0.4,0.1,0.5,0.4,0.5c0.2,0,0.4-0.2,0.6-0.5l6.3-44
		c0-0.3-0.1-0.4-0.4-0.5c-0.2,0-0.4,0.1-0.6,0.5c-0.2,0.4-0.7,1.2-1.3,2.2s-1.4,2.1-2.4,3c-1,1-2.4,1.5-4.2,1.5
		c-1.4,0-4.1-0.3-7.9-0.8c-5.1-0.7-9.6-1.1-13.4-1.1c-8.4,0-15.9,1.6-22.2,4.7c-6.4,3.1-11.3,7.4-14.7,12.8
		c-3.4,5.4-5.1,11.5-5.1,18.3c0,3.4,0.6,6.3,1.9,8.7c1.2,2.4,3.1,4.5,5.7,6.4c2.5,1.9,6.2,4.1,11,6.5c6.1,3.2,10.9,5.8,14.2,7.9
		c3.3,2.1,5.9,4.2,7.8,6.3c1.8,2.1,2.7,4.4,2.7,6.7c0,2.9-0.9,5.6-2.6,8.1c-1.8,2.5-4.2,4.4-7.3,5.9c-3.1,1.5-6.5,2.2-10.3,2.2
		c-7.8,0-14.3-3.1-19.4-9.2c-5.1-6.2-7.9-16-8.4-29.4c-0.1-0.3-0.2-0.4-0.4-0.5c-0.2,0-0.3,0.1-0.4,0.5l-6.5,45.5
		c-0.1,0.4,0,0.5,0.4,0.5c0.3,0,0.6-0.2,0.7-0.5c1.4-2.4,2.6-4.1,3.8-5.1c1.2-1.1,2.6-1.6,4.2-1.6c1.9,0,4.8,0.3,8.6,0.8
		c5.1,0.7,10.1,1.1,15.1,1.1c6.5,0,13.1-1.5,20.1-4.5c5.8-2.5,10.7-5.8,14.9-10c1.2,3.8,3.4,6.8,6.6,9.2c5.1,3.7,11.4,5.6,18.8,5.6
		c5.2,0,11.1-1.4,17.7-4.1c4.8-2,9.6-4.7,14.4-8.2c1.1,2.5,2.8,4.6,4.9,6.4c4.6,3.9,10.6,5.8,18.1,5.8c9.2,0,17.7-2.3,25.5-7
		c3.8-2.3,7.3-4.6,10.4-7.1c-1.3,3.7-2.5,7.2-3.7,10.4c-0.3,0.8-0.5,1.5-0.5,2.1c0,0.4,0.1,0.7,0.4,0.9c0.3,0.1,0.8,0.2,1.5,0.3
		c0.9,0.1,2.2,0.1,3.9,0.1c7.4,0,13.9-1.1,19.5-3.4c1.2-0.4,2-1.3,2.3-2.5c1-3.6,2.2-7.5,3.6-11.7c1.4-4.2,2.7-7.6,3.8-10
		c4-8.4,7.7-14.7,11.3-18.9c3.5-4.3,6.6-6.4,9-6.4c1,0.8,1.6,1.7,1.6,2.8c0,0.5-0.2,1.3-0.5,2.2c-0.3,0.9-0.5,1.6-0.6,1.9l-1.6,4.9
		c-0.9,3.2-1.8,6.2-2.7,9.2c-1.5,4.8-2.6,8.5-3.3,11.1c-0.6,1.8-0.8,3.7-0.8,5.5c0,4.9,1.9,8.8,5.7,11.6c3.8,2.8,8.3,4.2,13.6,4.2
		c4.4,0,9-2.1,13.7-6.3c0.7-0.6,1.3-1.2,1.9-1.8c0.7,0.8,1.4,1.5,2.2,2.2c4.6,3.9,10.6,5.8,18.1,5.8c9.2,0,17.7-2.3,25.5-7
		c7.8-4.7,14.3-9.8,19.4-15.5c5.1-5.7,9-10.7,11.6-15.1C629.5,458.4,629.6,458.1,629.5,457.8z M440.9,449c1.3-5.8,3-10.8,5-14.9
		c2-4.1,4.2-6.1,6.6-6.1c2.4,0,4.4,1.3,6.2,3.8c1.7,2.5,2.6,5.3,2.6,8.5c0,4.4-0.4,7.7-1.1,9.9c-0.8,2.2-2.7,4.4-5.9,6.7
		c-3.1,2.3-8.4,5-15.8,8.1C438.7,460.2,439.6,454.8,440.9,449z M468.4,481.4c-5.2,2.3-11.4,3.5-18.6,3.5c-2.7,0-5.3-1.1-7.9-3.4
		c-2.6-2.3-3.8-6.3-3.8-12c0-1.2,0-2.2,0.1-2.9c11.6-3.8,20.4-7,26.6-9.6c6.2-2.6,10.7-5.3,13.7-8.1c2.7-2.6,4.2-5.4,4.4-8.6
		c1.5-0.9,2.6-1.3,3.4-1.3c0.8-0.1,1.2,0.6,1.2,2c0,0.7-0.1,1.4-0.4,2.1l-2.9,9.1c-2.8,9.2-5.5,17.5-8.1,25.1
		C473.8,478.7,471.3,480.1,468.4,481.4z M580.2,434.2c2-4.1,4.2-6.1,6.6-6.1c2.4,0,4.4,1.3,6.2,3.8c1.7,2.5,2.6,5.3,2.6,8.5
		c0,4.4-0.4,7.7-1.1,9.9c-0.8,2.2-2.7,4.4-5.9,6.7c-3.1,2.3-8.4,5-15.8,8.1c0.4-4.8,1.3-10.2,2.6-16
		C576.5,443.2,578.2,438.3,580.2,434.2z"/>
	<g>
		<path d="M167.4,389.1c-2.9,0.2-6.1,0.2-9.5,0.2c-0.4,0-0.7-0.2-0.7-0.5c0-0.2,0.1-0.3,0.3-0.5c0.2-0.2,0.4-0.2,0.7-0.2
			c3.1-0.1,5.8-0.8,8-2.1c2.2-1.3,4.3-3.7,6.2-7c2-3.4,4.1-8.3,6.4-14.7l18.8-54.9h-2c-1.5,0-4.7,1.7-9.6,5
			c-4.9,3.4-10.2,7.8-15.9,13.3c-5.7,5.5-10.6,11.3-14.8,17.5c-0.2,0.3-0.4,0.5-0.6,0.5c-0.2,0-0.2-0.2-0.2-0.5l21.7-43.6
			c0.1-0.2,0.3-0.2,0.4-0.2c0.1,0,0.3,0.1,0.3,0.2c0.1,2.2,1.8,3.8,5.1,4.7c3.2,0.9,8.2,1.3,14.8,1.3h27.2c5.5,0,9.8-0.2,12.9-0.6
			c3.1-0.4,5.5-1.1,7.1-1.9c1.6-0.9,3-2,4.1-3.5c0.1-0.2,0.3-0.2,0.5-0.2c0.2,0,0.3,0.1,0.3,0.2l-8.2,43.6c-0.1,0.4-0.3,0.6-0.5,0.5
			c-0.2,0-0.3-0.3-0.3-0.8c0-6.2-1-12-2.9-17.5c-1.9-5.5-4.2-9.8-6.8-13.2c-2.6-3.3-4.8-5-6.5-5h-1.4l-18.9,55
			c-1.6,4.8-2.4,8.7-2.4,11.8c0,4.3,1.2,7.3,3.5,9c2.3,1.8,5.3,2.7,8.9,2.8c0.5,0,0.8,0.2,1,0.6c0.1,0.4,0,0.6-0.5,0.6
			c-3.2,0-6.1-0.1-8.8-0.2c-0.9-0.1-2-0.1-3.5-0.1h-30.3C169.7,388.9,168.4,389,167.4,389.1z"/>
		<path d="M377.7,356.1c0.2,0,0.4,0.1,0.5,0.4c0.1,0.3,0.1,0.6-0.2,0.9c-2.3,3.9-5.7,8.3-10.1,13.3c-4.5,5-10.1,9.5-17,13.6
			c-6.9,4.1-14.3,6.1-22.3,6.1c-6.6,0-11.8-1.7-15.8-5.1c-4-3.4-6-8.2-6-14.3c0-6.7,2.1-13.4,6.3-20.2c4.2-6.8,9.6-12.4,16.1-16.8
			c6.5-4.4,12.9-6.6,19.1-6.6c3.7,0,7,0.6,9.9,1.9c2.9,1.3,5.2,2.9,6.8,4.9c1.6,2,2.5,4,2.5,6c0,3.1-1.3,5.9-3.9,8.3
			c-2.6,2.4-6.6,4.8-12,7.1c-5.4,2.3-13.2,5.1-23.3,8.5c-0.1,0.6-0.1,1.5-0.1,2.6c0,5,1.1,8.5,3.3,10.6c2.2,2,4.5,3,6.9,3
			c6.3,0,11.8-1,16.3-3.1c4.5-2,8.2-4.5,11-7.3c2.8-2.8,5.9-6.4,9.1-10.7l2.1-2.8C377.3,356.2,377.5,356.1,377.7,356.1z M335,335.8
			c-1.7,3.6-3.2,7.9-4.3,13c-1.1,5.1-1.9,9.8-2.2,14c6.5-2.7,11.1-5.1,13.9-7.1c2.8-2,4.5-4,5.1-5.9c0.7-1.9,1-4.8,1-8.7
			c0-2.8-0.7-5.3-2.2-7.5c-1.5-2.2-3.3-3.3-5.4-3.3C338.7,330.4,336.8,332.2,335,335.8z"/>
		<path d="M316,356.7c-0.3,0-0.5,0.2-0.7,0.6c-3.2,6.3-7,12.6-11.4,18.9c-4.5,6.3-8.7,9.9-12.8,10.9c-0.5,0-1-0.4-1.3-1.1
			c-0.4-0.7-0.5-1.7-0.5-3c0-1.2,0.3-2.7,0.8-4.5l1.2-4.1c3.3-11.3,5.8-19.5,7.6-24.7c0.7-2.2,1.1-4.3,1.1-6.3c0-3.9-1-7.3-3-10.2
			c-2-2.9-4.4-4.4-7.2-4.4c-1,0-2,0.2-3.2,0.7c-9,3.8-17.8,14.9-26.3,33.4h-0.6c0.3-1,1.1-3.3,2.2-7c1.1-3.6,2.9-9.1,5.4-16.5
			c6.2-19.2,10.2-31.6,12-37.4c0.5-1.3,0.9-2.6,1.3-3.8l0,0l-11.7,2.1v0l0,0l-6.8,1.2c0,0,0,0,0,0l-10,1.8v2.1c0,0,9.2-2,8.3,0
			c0,0,0,0,0,0c-3,6.9-8.6,20.3-9,21.8c-1.6,5.2-4.3,11.3-6.5,18.8c-0.7,2.5-2.7,9.3-6.1,20.4c-3.3,11.1-5.6,18.4-6.9,21.9
			c-0.3,0.9-0.5,1.5-0.5,1.9c0,0.4,0.1,0.6,0.4,0.8c0.3,0.1,0.7,0.2,1.3,0.3c0.7,0.1,1.8,0.1,3.3,0.1c5.9,0,11.2-1,15.9-3
			c1-0.4,1.6-1.1,1.9-2.2c0.9-3.4,1.9-6.9,3.1-10.6c1.1-3.6,2.1-6.5,3.1-8.6c3.2-7.3,6.2-12.9,9.2-16.6c3-3.8,5.5-5.6,7.5-5.6
			c0.6,0.5,0.9,1.2,0.9,2.2c0,0.7-0.2,1.8-0.5,3.2c-0.3,1.4-0.8,3.1-1.3,4.9c-0.7,2.8-1.5,5.5-2.3,8.1c-1.2,4.3-2.2,7.5-2.8,9.7
			c-0.5,1.6-0.7,3.2-0.7,4.9c0,4.3,1.6,7.7,4.7,10.1c3.1,2.4,6.8,3.7,11.2,3.7c3.6,0,7.4-1.8,11.3-5.5c3.9-3.7,7.5-8.1,10.8-13.2
			c3.2-5.1,5.9-10,7.8-14.4c0.2-0.5,0.3-0.9,0.3-1.3C316.4,357,316.2,356.7,316,356.7z"/>
	</g>
	<g>
		<path d="M399.8,411c-4.7-4.1-7.4-9.2-8.1-15.3h9.5c2.2,8,8.2,12,18.2,12c5.8,0,10.4-1.6,13.8-4.9c3.4-3.2,5-7.7,5-13.5v-10.3h-0.7
			c-2.2,2.8-5.2,5-8.7,6.7c-3.6,1.7-7.4,2.5-11.4,2.5c-5,0-9.7-1.3-14-4c-4.3-2.6-7.8-6.3-10.4-11c-2.6-4.7-3.9-10-3.9-15.9
			c0-5.9,1.3-11.2,3.9-15.9c2.6-4.7,6.1-8.4,10.4-11c4.3-2.6,9-4,14-4c4,0,7.9,0.8,11.4,2.5c3.6,1.7,6.5,3.9,8.7,6.7h0.7l1.1-7.9
			h7.9v61.6c0,5.5-1.1,10.4-3.3,14.6c-2.2,4.2-5.4,7.5-9.6,9.8c-4.2,2.3-9.1,3.5-14.8,3.5C411.1,417.1,404.5,415.1,399.8,411z
			 M428.3,376c3.1-1.8,5.5-4.3,7.3-7.6c1.8-3.3,2.7-7,2.7-11.2c0-4.2-0.9-7.9-2.7-11.2c-1.8-3.3-4.2-5.8-7.3-7.6
			c-3.1-1.8-6.4-2.6-10.1-2.6c-3.7,0-7,0.9-10.1,2.6c-3.1,1.8-5.5,4.3-7.3,7.6s-2.7,7-2.7,11.2c0,4.2,0.9,7.9,2.7,11.2
			c1.8,3.3,4.2,5.8,7.3,7.6c3.1,1.8,6.4,2.6,10.1,2.6C421.8,378.7,425.2,377.8,428.3,376z"/>
		<path d="M470.8,387.7c-4.6-2.8-8.3-6.7-11-11.7c-2.7-5-4.1-10.6-4.1-16.8c0-6.2,1.4-11.8,4.1-16.8c2.7-5,6.4-8.9,11-11.7
			c4.6-2.8,9.8-4.2,15.4-4.2c5.6,0,10.7,1.4,15.4,4.2c4.6,2.8,8.3,6.7,11,11.7c2.7,5,4.1,10.6,4.1,16.8c0,6.2-1.4,11.8-4.1,16.8
			c-2.7,5-6.4,8.9-11,11.7c-4.6,2.8-9.8,4.2-15.4,4.2C480.5,391.9,475.4,390.5,470.8,387.7z M496.9,379.5c3.3-1.9,5.9-4.7,7.9-8.3
			c1.9-3.6,2.9-7.6,2.9-12.2s-1-8.6-2.9-12.2c-1.9-3.6-4.6-6.3-7.9-8.3c-3.3-1.9-6.9-2.9-10.8-2.9c-3.9,0-7.5,1-10.8,2.9
			c-3.3,1.9-5.9,4.7-7.9,8.3c-1.9,3.6-2.9,7.6-2.9,12.2s1,8.6,2.9,12.2c1.9,3.6,4.6,6.3,7.9,8.3c3.3,1.9,6.9,2.9,10.8,2.9
			C490,382.4,493.6,381.5,496.9,379.5z"/>
		<path d="M536.3,387.7c-4.6-2.8-8.3-6.7-11-11.7c-2.7-5-4.1-10.6-4.1-16.8c0-6.2,1.4-11.8,4.1-16.8c2.7-5,6.4-8.9,11-11.7
			c4.6-2.8,9.8-4.2,15.4-4.2c5.6,0,10.7,1.4,15.4,4.2c4.6,2.8,8.3,6.7,11,11.7c2.7,5,4.1,10.6,4.1,16.8c0,6.2-1.4,11.8-4.1,16.8
			c-2.7,5-6.4,8.9-11,11.7c-4.6,2.8-9.8,4.2-15.4,4.2C546,391.9,540.9,390.5,536.3,387.7z M562.4,379.5c3.3-1.9,5.9-4.7,7.9-8.3
			c1.9-3.6,2.9-7.6,2.9-12.2s-1-8.6-2.9-12.2c-1.9-3.6-4.6-6.3-7.9-8.3c-3.3-1.9-6.9-2.9-10.8-2.9c-3.9,0-7.5,1-10.8,2.9
			c-3.3,1.9-5.9,4.7-7.9,8.3c-1.9,3.6-2.9,7.6-2.9,12.2s1,8.6,2.9,12.2c1.9,3.6,4.6,6.3,7.9,8.3c3.3,1.9,6.9,2.9,10.8,2.9
			C555.5,382.4,559.1,381.5,562.4,379.5z"/>
		<path d="M601.1,387.7c-4.4-2.8-7.9-6.7-10.5-11.7c-2.6-5-3.9-10.6-3.9-16.8c0-6.2,1.3-11.8,3.9-16.8c2.6-5,6.1-8.9,10.5-11.7
			c4.4-2.8,9.2-4.2,14.2-4.2c8.1,0,15,3.3,20.4,10h0.7v-33.9h9v88.2h-7.9l-1.1-8.7h-0.7c-5.5,6.6-12.3,10-20.4,10
			C610.3,391.9,605.5,390.5,601.1,387.7z M626.1,379.5c3.1-1.9,5.6-4.7,7.5-8.3c1.9-3.6,2.9-7.6,2.9-12.2s-1-8.6-2.9-12.2
			c-1.9-3.6-4.4-6.3-7.5-8.3c-3.1-1.9-6.4-2.9-10-2.9c-3.6,0-6.9,1-10,2.9c-3.1,1.9-5.6,4.7-7.5,8.3c-1.9,3.6-2.9,7.6-2.9,12.2
			s1,8.6,2.9,12.2c1.9,3.6,4.4,6.3,7.5,8.3c3.1,1.9,6.4,2.9,10,2.9C619.6,382.4,623,381.5,626.1,379.5z"/>
	</g>
</g>
</svg>
